<svg id="Layer_3" data-name="Layer 3" xmlns="http://www.w3.org/2000/svg" viewBox="0 0 1400 2000"><defs><style>.cls-1{fill:#020202;}</style></defs><title>background_stripes_black</title><rect class="cls-1" x="948.5" y="0.5" width="79" height="1354"/><path d="M1027,1V1354H949V1h78m1-1H948V1355h80V0Z"/><polygon points="947.28 1355.74 1026.04 1355.51 24.25 1904.15 947.28 1355.74"/><path d="M1024.07,1356,49,1890l898.39-533.77,76.65-.23m3.93-1-80.85.24L0,1918v0l1028-563Z"/><rect class="cls-1" x="1080.5" y="0.5" width="79" height="1354"/><path d="M1159,1V1354h-78V1h78m1-1h-80V1355h80V0Z"/><polygon points="1079.27 1355.74 1157.81 1355.51 30.28 1902.75 1079.27 1355.74"/><path d="M1155.62,1356,61.29,1887.14l1018.1-530.9,76.23-.23m4.38-1-80.85.24L0,1918v0l1160-563Z"/></svg>